<mxfile host="app.diagrams.net" modified="2020-12-06T08:57:06.241Z" agent="5.0 (Windows NT 10.0; Win64; x64) AppleWebKit/537.36 (KHTML, like Gecko) Chrome/87.0.4280.88 Safari/537.36" etag="atTQKgE8aCEBkJQmUvkk" version="13.10.9" type="github">
  <diagram id="RaEsLhP9hyBYMOpqRB53" name="Page-1">
    <mxGraphModel dx="1038" dy="588" grid="1" gridSize="10" guides="1" tooltips="1" connect="1" arrows="1" fold="1" page="1" pageScale="1" pageWidth="1169" pageHeight="827" background="#ffffff" math="1" shadow="0">
      <root>
        <mxCell id="0" />
        <mxCell id="1" parent="0" />
        <mxCell id="6" value="" style="rounded=0;whiteSpace=wrap;html=1;" parent="1" vertex="1">
          <mxGeometry x="305" y="371" width="630" height="220" as="geometry" />
        </mxCell>
        <mxCell id="7" value="$$|e \rangle$$" style="ellipse;whiteSpace=wrap;html=1;dashed=1;fontSize=19;" parent="1" vertex="1">
          <mxGeometry x="415" y="380" width="80" height="110" as="geometry" />
        </mxCell>
        <mxCell id="8" value="$$|s\rangle$$" style="ellipse;whiteSpace=wrap;html=1;dashed=1;fontSize=19;" parent="1" vertex="1">
          <mxGeometry x="765" y="390" width="60" height="90" as="geometry" />
        </mxCell>
        <mxCell id="9" value="$$|g\rangle$$" style="ellipse;whiteSpace=wrap;html=1;dashed=1;fontSize=19;" parent="1" vertex="1">
          <mxGeometry x="580" y="459" width="50" height="101" as="geometry" />
        </mxCell>
        <mxCell id="16" value="" style="group" parent="1" vertex="1" connectable="0">
          <mxGeometry x="385" y="200" width="140" height="266" as="geometry" />
        </mxCell>
        <mxCell id="15" value="" style="rounded=0;whiteSpace=wrap;html=1;fillColor=#FF3333;gradientColor=#ffffff;opacity=30;strokeColor=none;" parent="16" vertex="1">
          <mxGeometry x="30" y="140" width="80" height="119.59" as="geometry" />
        </mxCell>
        <mxCell id="24" value="" style="rounded=0;whiteSpace=wrap;html=1;fillColor=#FF3333;gradientColor=#ffffff;opacity=30;strokeColor=none;" parent="16" vertex="1">
          <mxGeometry x="30" y="-7.566265060240966" width="80" height="92.93975903614457" as="geometry" />
        </mxCell>
        <mxCell id="10" value="" style="rounded=0;whiteSpace=wrap;html=1;" parent="16" vertex="1">
          <mxGeometry y="-30" width="140" height="128.19277108433735" as="geometry" />
        </mxCell>
        <mxCell id="29" value="&lt;div style=&quot;color: rgb(51, 51, 51); background-color: rgb(245, 245, 245); font-family: consolas, &amp;quot;courier new&amp;quot;, monospace; font-size: 18px; line-height: 19px;&quot;&gt;Femtosecond&amp;nbsp;laser&lt;/div&gt;" style="text;html=1;strokeColor=none;fillColor=none;align=center;verticalAlign=middle;whiteSpace=wrap;rounded=0;fontSize=18;" parent="16" vertex="1">
          <mxGeometry x="45" y="49.34" width="40" height="48.85" as="geometry" />
        </mxCell>
        <mxCell id="12" value="" style="shape=trapezoid;perimeter=trapezoidPerimeter;whiteSpace=wrap;html=1;rotation=180;" parent="16" vertex="1">
          <mxGeometry y="98.19013698630135" width="140" height="43.726027397260275" as="geometry" />
        </mxCell>
        <mxCell id="20" value="" style="endArrow=classic;startArrow=classic;html=1;entryX=0;entryY=0.5;" parent="1" source="7" target="8" edge="1">
          <mxGeometry x="305" y="51" width="50" height="50" as="geometry">
            <mxPoint x="559" y="551" as="sourcePoint" />
            <mxPoint x="649" y="551" as="targetPoint" />
          </mxGeometry>
        </mxCell>
        <mxCell id="21" value="" style="endArrow=classic;startArrow=classic;html=1;exitX=1;exitY=1;exitDx=0;exitDy=0;" parent="1" source="7" target="9" edge="1">
          <mxGeometry x="305" y="51" width="50" height="50" as="geometry">
            <mxPoint x="455" y="521" as="sourcePoint" />
            <mxPoint x="515" y="631" as="targetPoint" />
          </mxGeometry>
        </mxCell>
        <mxCell id="27" value="" style="endArrow=classic;startArrow=classic;html=1;exitX=1;exitY=0.5;entryX=0;entryY=1;" parent="1" source="9" target="8" edge="1">
          <mxGeometry x="305" y="51" width="50" height="50" as="geometry">
            <mxPoint x="305" y="831" as="sourcePoint" />
            <mxPoint x="355" y="781" as="targetPoint" />
          </mxGeometry>
        </mxCell>
        <mxCell id="o5H3n1R6OQzwtFgVDY5G-29" value="Crystal" style="text;html=1;strokeColor=none;fillColor=none;align=center;verticalAlign=middle;whiteSpace=wrap;rounded=0;strokeWidth=1;fontSize=20;" parent="1" vertex="1">
          <mxGeometry x="330" y="396" width="40" height="20" as="geometry" />
        </mxCell>
      </root>
    </mxGraphModel>
  </diagram>
</mxfile>
